<?xml version="1.0" standalone="no"?>
<!DOCTYPE svg PUBLIC "-//W3C//DTD SVG 20010904//EN"
 "http://www.w3.org/TR/2001/REC-SVG-20010904/DTD/svg10.dtd">
<svg version="1.0" xmlns="http://www.w3.org/2000/svg"
 width="512.000000pt" height="512.000000pt" viewBox="0 0 512.000000 512.000000"
 preserveAspectRatio="xMidYMid meet">

<g transform="translate(0.000000,512.000000) scale(0.100000,-0.100000)"
fill="#000000" stroke="none">
<path d="M1919 4560 c-119 -10 -226 -21 -238 -25 -47 -15 -51 -81 -7 -110 20
-13 40 -14 132 -7 60 6 110 9 112 7 2 -1 -324 -251 -723 -555 -495 -377 -727
-560 -731 -575 -13 -53 45 -97 94 -70 15 7 349 259 742 559 393 300 716 543
718 541 2 -2 -13 -61 -33 -131 -36 -127 -36 -128 -17 -153 10 -14 30 -27 44
-29 50 -6 63 21 132 260 36 124 66 233 66 241 0 21 -31 54 -55 60 -11 2 -117
-4 -236 -13z"/>
<path d="M2433 4143 c-54 -11 -53 0 -53 -638 l0 -591 -70 -69 -70 -69 0 415
c0 359 -2 418 -16 437 -15 22 -19 22 -228 22 -167 0 -216 -3 -232 -14 -19 -14
-19 -34 -19 -791 0 -757 0 -777 19 -791 15 -11 56 -14 170 -14 l151 0 28 -79
c78 -222 257 -405 481 -495 115 -46 195 -58 346 -53 154 5 224 23 355 90 44
23 83 42 86 42 3 0 36 -28 72 -62 66 -61 66 -61 55 -97 -24 -76 -18 -83 367
-453 240 -231 370 -348 401 -363 32 -16 64 -22 108 -22 155 -1 268 110 270
263 2 117 -12 134 -404 510 -196 188 -360 338 -379 346 -23 10 -49 13 -75 9
-39 -7 -42 -5 -106 59 l-67 66 33 62 c18 34 45 103 60 152 24 79 27 107 28
230 0 116 -3 153 -22 218 -27 96 -68 185 -116 256 -20 29 -36 58 -36 65 0 6
21 62 48 124 l47 114 47 3 c101 6 179 83 186 184 5 69 -17 121 -72 169 -40 35
-85 47 -157 40 -61 -6 -114 -45 -146 -108 -30 -58 -29 -114 2 -175 l24 -49
-41 -98 c-22 -54 -44 -97 -47 -96 -3 2 -44 28 -91 59 -132 87 -252 127 -432
145 l-58 5 0 503 c0 498 0 503 -21 522 -19 17 -39 19 -213 20 -105 1 -201 0
-213 -3z m317 -598 l0 -465 -27 -6 c-52 -11 -128 -37 -165 -55 -21 -11 -40
-19 -43 -19 -3 0 -5 227 -5 505 l0 505 120 0 120 0 0 -465z m-640 -513 c0
-461 -1 -493 -21 -568 -11 -43 -23 -127 -26 -186 l-6 -108 -93 0 -94 0 0 675
0 675 120 0 120 0 0 -488z m1640 238 c51 -51 -7 -136 -74 -110 -70 26 -50 130
25 130 16 0 38 -9 49 -20z m-668 -329 c89 -23 159 -57 244 -116 90 -64 88 -61
56 -141 -28 -69 -29 -69 -73 -74 -50 -7 -83 -22 -119 -56 l-25 -23 -74 22 -74
23 -11 45 c-27 105 -97 163 -196 163 -103 0 -185 -71 -197 -172 -6 -54 14
-129 42 -152 11 -9 7 -26 -25 -97 l-38 -86 -55 -2 c-193 -5 -266 -238 -114
-359 51 -40 143 -49 203 -18 101 52 140 159 94 259 l-19 42 42 96 42 95 38 0
c39 0 104 28 125 53 11 13 24 11 97 -12 l84 -26 11 -44 c15 -59 80 -125 139
-141 123 -33 251 63 251 188 0 45 -21 105 -46 133 -14 15 -14 21 4 55 l19 37
26 -44 c59 -101 93 -258 84 -383 -19 -258 -159 -470 -388 -591 -193 -101 -455
-101 -648 0 -139 73 -249 185 -315 319 -53 109 -70 184 -70 316 0 132 17 207
70 316 88 180 263 323 456 374 100 26 260 26 360 1z m-219 -313 c37 -44 6
-108 -53 -108 -65 0 -91 70 -44 116 29 30 67 27 97 -8z m517 -168 c51 -51 -7
-136 -74 -110 -70 26 -50 130 25 130 16 0 38 -9 49 -20z m-787 -342 c55 -64
-43 -148 -103 -88 -11 11 -20 29 -20 41 0 69 77 99 123 47z m1024 -555 l-27
-27 -50 49 -50 49 27 28 27 29 50 -51 51 -50 -28 -27z"/>
<path d="M1124 3225 l-24 -25 2 -566 c3 -547 4 -566 22 -580 16 -11 65 -14
232 -14 209 0 213 0 228 22 14 20 16 92 16 584 l0 563 -26 20 c-25 20 -40 21
-226 21 -198 0 -199 0 -224 -25z m346 -580 l0 -475 -120 0 -120 0 0 468 c0
258 3 472 7 475 3 4 57 7 120 7 l113 0 0 -475z"/>
<path d="M480 2883 c-20 -26 -21 -33 -18 -421 3 -376 4 -394 22 -408 16 -11
65 -14 232 -14 209 0 213 0 228 22 14 19 16 76 16 415 0 380 -1 394 -20 413
-19 19 -33 20 -229 20 l-210 0 -21 -27z m350 -408 l0 -305 -120 0 -120 0 0
305 0 305 120 0 120 0 0 -305z"/>
</g>
</svg>
